# xmcd
#
# Track frame offsets: 
#        150
#        16679
#        32944
#        49292
#        69811
#        87513
#        111293
#        132954
#
# Disc length: 2029 seconds
#
# Revision: 3
# Processed by: cddbd v1.5.2PL0 Copyright (c) Steve Scherf et al.
# Submitted via: ExactAudioCopy v1.0b3
#
DISCID=6507eb08
DTITLE=Keith Urban - Get Closer
DYEAR=2010
DGENRE=Country
TTITLE0=Put You in a Song
TTITLE1=You Gonna Fly
TTITLE2=All for You
TTITLE3=Long Hot Summer
TTITLE4=Without You
TTITLE5=Georgia Woods
TTITLE6=Right on Back to You
TTITLE7=Shut Out the Lights
EXTD=YEAR: 2010
EXTT0=
EXTT1=
EXTT2=
EXTT3=
EXTT4=
EXTT5=
EXTT6=
EXTT7=
PLAYORDER=
